<mxfile host="65bd71144e" pages="1">
    <diagram id="G0ZN9Z9GyYTkG0BB1r5q" name="Page-1">
        <mxGraphModel dx="1132" dy="1663" grid="1" gridSize="10" guides="1" tooltips="1" connect="1" arrows="1" fold="1" page="1" pageScale="1" pageWidth="827" pageHeight="1169" math="0" shadow="0">
            <root>
                <mxCell id="0"/>
                <mxCell id="1" parent="0"/>
                <mxCell id="4" style="edgeStyle=none;html=1;entryX=0.992;entryY=0.367;entryDx=0;entryDy=0;entryPerimeter=0;" edge="1" parent="1" source="2" target="3">
                    <mxGeometry relative="1" as="geometry"/>
                </mxCell>
                <mxCell id="2" value="" style="rounded=1;whiteSpace=wrap;html=1;" parent="1" vertex="1">
                    <mxGeometry x="340" y="-240" width="120" height="60" as="geometry"/>
                </mxCell>
                <mxCell id="3" value="" style="rounded=1;whiteSpace=wrap;html=1;" parent="1" vertex="1">
                    <mxGeometry x="80" y="-260" width="120" height="60" as="geometry"/>
                </mxCell>
            </root>
        </mxGraphModel>
    </diagram>
</mxfile>